<svg width="50" height="58" viewBox="0 0 50 58" fill="none" xmlns="http://www.w3.org/2000/svg">
<path d="M43.7748 12.4031C43.3854 12.2006 43.0063 11.9787 42.639 11.7381C41.5716 11.0286 40.5928 10.1926 39.7239 9.2482C37.5471 6.74541 36.7344 4.20654 36.437 2.43062L36.4473 2.43062C36.1986 0.953688 36.3011 -9.08406e-09 36.3191 -9.08855e-09L26.4097 -6.60882e-09L26.4097 38.5161C26.4097 39.0316 26.4097 39.5446 26.3892 40.0498C26.3892 40.1116 26.3815 40.1683 26.3789 40.2379C26.3789 40.2637 26.3789 40.2946 26.3712 40.323L26.3712 40.3462C26.2672 41.7278 25.8269 43.0625 25.0893 44.2329C24.3516 45.4033 23.3391 46.3735 22.1409 47.0581C20.8908 47.773 19.4769 48.1479 18.0387 48.1458C13.4237 48.1458 9.68044 44.362 9.68044 39.6889C9.68044 35.0133 13.4237 31.2294 18.0387 31.2294C18.9129 31.2294 19.7821 31.3686 20.6128 31.6418L20.6256 21.4967C18.1028 21.1694 15.5399 21.3716 13.0987 22.0902C10.6575 22.8089 8.39099 24.0286 6.44227 25.6723C4.73436 27.1635 3.29841 28.9429 2.19906 30.9304C1.78115 31.6547 0.201807 34.5699 0.0120803 39.2971C-0.108422 41.9778 0.69407 44.7615 1.07609 45.9085L1.07609 45.9343C1.31453 46.6096 2.24778 48.9191 3.76559 50.8651C4.98957 52.4271 6.43573 53.7993 8.05751 54.9376L8.05751 54.9118L8.08058 54.9376C12.875 58.2111 18.1951 57.9971 18.1951 57.9971C19.1155 57.9585 22.1998 57.9971 25.7021 56.3295C29.5863 54.4788 31.7964 51.7234 31.7964 51.7234C33.2094 50.0767 34.333 48.2 35.1192 46.174C36.0165 43.8026 36.3139 40.9622 36.3139 39.8281L36.3139 19.3908C36.4344 19.463 38.0369 20.5275 38.0369 20.5275C38.0369 20.5275 40.3443 22.0147 43.9414 22.9813C46.5207 23.6695 49.9999 23.8164 49.9999 23.8164L49.9999 13.9264C48.782 14.0605 46.3079 13.6738 43.7722 12.4057L43.7748 12.4031Z" fill="white"/>
</svg>
