<svg width="25" height="26" viewBox="0 0 25 26" fill="none" xmlns="http://www.w3.org/2000/svg">
<path fill-rule="evenodd" clip-rule="evenodd" d="M12.0063 23.3928C13.7179 23.3956 15.3998 22.9117 16.8812 21.9901L16.8809 18.5548C16.8808 17.5924 16.5252 16.6693 15.8922 15.9887C15.2592 15.3082 14.4007 14.9258 13.5056 14.9257L10.5056 14.9254C9.61052 14.9254 8.75211 15.3076 8.11923 15.9881C7.48634 16.6686 7.13084 17.5915 7.13091 18.554L7.13118 21.9892C8.61274 22.9111 10.2946 23.3953 12.0063 23.3928ZM19.1309 18.555L19.131 20.0662C20.428 18.5733 21.2909 16.7055 21.6137 14.6922C21.9365 12.679 21.7052 10.6081 20.9481 8.73416C20.1911 6.86019 18.9413 5.26482 17.3524 4.14416C15.7635 3.0235 13.9047 2.42639 12.0046 2.42623C10.1045 2.42607 8.24589 3.02286 6.65718 4.14326C5.06846 5.26365 3.81891 6.85881 3.06214 8.73265C2.30537 10.6065 2.07436 12.6773 2.3975 14.6906C2.72064 16.7039 3.58386 18.5719 4.88103 20.065L4.88091 18.5538C4.8808 17.3069 5.23894 16.0905 5.90634 15.0709C6.57375 14.0513 7.51783 13.2783 8.60947 12.8577C8.04299 12.1571 7.67586 11.2962 7.55187 10.3776C7.42788 9.45894 7.55226 8.5214 7.91017 7.67676C8.26809 6.83213 8.84443 6.11606 9.57045 5.61396C10.2965 5.11187 11.1415 4.84493 12.0048 4.84501C12.8681 4.84508 13.7132 5.11215 14.4393 5.61438C15.1654 6.1166 15.7419 6.83276 16.0999 7.67746C16.458 8.52215 16.5825 9.45971 16.4587 10.3783C16.3348 11.2969 15.9678 12.1578 15.4015 12.8582C16.4932 13.2791 17.4374 14.0522 18.1049 15.0719C18.7725 16.0916 19.1308 17.3081 19.1309 18.555ZM12.0065 25.812C15.1891 25.8123 18.2412 24.4532 20.4915 22.0337C22.7417 19.6142 24.0057 16.3325 24.0055 12.9106C24.0052 9.48863 22.7407 6.20674 20.49 3.78687C18.2394 1.367 15.1871 0.0073853 12.0045 0.00711661C8.82186 0.00684792 5.76972 1.36595 3.51947 3.78544C1.26922 6.20493 0.00519997 9.48661 0.00546866 12.9085C0.00573735 16.3305 1.27028 19.6124 3.5209 22.0322C5.77153 24.4521 8.82388 25.8117 12.0065 25.812ZM14.2552 9.68414C14.2553 10.3258 14.0183 10.9411 13.5963 11.3947C13.1744 11.8484 12.6021 12.1032 12.0054 12.1032C11.4087 12.1031 10.8364 11.8482 10.4144 11.3945C9.99237 10.9407 9.75527 10.3254 9.75522 9.68376C9.75517 9.04214 9.99217 8.42683 10.4141 7.97318C10.836 7.51952 11.4083 7.26469 12.005 7.26474C12.6018 7.26479 13.1741 7.51972 13.5961 7.97344C14.0181 8.42717 14.2552 9.04252 14.2552 9.68414Z" fill="black"/>
</svg>
