<svg width="26" height="24" viewBox="0 0 26 24" fill="none" xmlns="http://www.w3.org/2000/svg">
<path d="M8.24041 0.38404C8.35115 0.204627 8.53081 0.0752668 8.73987 0.0244178C8.94892 -0.0264312 9.17024 0.00539597 9.35513 0.112898C9.54003 0.2204 9.67336 0.39477 9.7258 0.59765C9.77823 0.80053 9.74547 1.0153 9.63472 1.19471L5.49799 7.88539L20.5032 7.88665L16.3638 1.19528C16.2531 1.01585 16.2203 0.801074 16.2727 0.598203C16.3251 0.395332 16.4584 0.220984 16.6433 0.113513C16.8281 0.00604248 17.0495 -0.0257473 17.2585 0.025137C17.4676 0.0760213 17.6473 0.205412 17.758 0.384844L22.398 7.88681L25.1881 7.88705C25.4036 7.88707 25.6103 7.97016 25.7627 8.11804C25.915 8.26592 26.0007 8.46648 26.0007 8.67559L26.0009 11.8295C26.0009 12.0386 25.9154 12.2392 25.763 12.387C25.6106 12.5349 25.404 12.6179 25.1885 12.6179L24.376 12.6178L24.3766 20.5026C24.3767 21.3391 24.0343 22.1413 23.4249 22.7327C22.8154 23.3241 21.9888 23.6563 21.1269 23.6563L4.87686 23.6549C4.0149 23.6548 3.18823 23.3225 2.57869 22.7309C1.96915 22.1394 1.62668 21.3372 1.62661 20.5007L1.62599 12.6159L0.813491 12.6159C0.598002 12.6158 0.391333 12.5328 0.238948 12.3849C0.0865633 12.237 0.000945093 12.0364 0.000928674 11.8273L0.00068103 8.6734C0.000664611 8.46428 0.0862513 8.26374 0.238613 8.11588C0.390975 7.96803 0.597631 7.88497 0.813119 7.88499L3.60324 7.88523L8.23878 0.38404L8.24041 0.38404ZM5.68868 14.9817C5.68866 14.7726 5.60304 14.572 5.45066 14.4241C5.29827 14.2763 5.0916 14.1932 4.87611 14.1932C4.66063 14.1931 4.45397 14.2762 4.30161 14.424C4.14925 14.5719 4.06366 14.7724 4.06368 14.9816L4.06405 19.7124C4.06406 19.9215 4.14968 20.1221 4.30207 20.27C4.45445 20.4179 4.66112 20.501 4.87661 20.501C5.0921 20.501 5.29875 20.4179 5.45112 20.2701C5.60348 20.1222 5.68906 19.9217 5.68905 19.7126L5.68868 14.9817ZM9.75118 14.982C9.75116 14.7729 9.66554 14.5724 9.51316 14.4245C9.36077 14.2766 9.1541 14.1935 8.93862 14.1935C8.72313 14.1935 8.51647 14.2765 8.36411 14.4244C8.21175 14.5722 8.12616 14.7728 8.12618 14.9819L8.12655 19.7128C8.12657 19.9219 8.21218 20.1225 8.36457 20.2703C8.51695 20.4182 8.72362 20.5013 8.93911 20.5013C9.1546 20.5013 9.36125 20.4183 9.51362 20.2704C9.66598 20.1226 9.75157 19.922 9.75155 19.7129L9.75118 14.982ZM13.8137 14.9824C13.8137 14.7733 13.728 14.5727 13.5757 14.4248C13.4233 14.2769 13.2166 14.1939 13.0011 14.1938C12.7856 14.1938 12.579 14.2769 12.4266 14.4247C12.2742 14.5726 12.1887 14.7731 12.1887 14.9823L12.189 19.7131C12.1891 19.9222 12.2747 20.1228 12.4271 20.2707C12.5795 20.4186 12.7861 20.5016 13.0016 20.5017C13.2171 20.5017 13.4238 20.4186 13.5761 20.2708C13.7285 20.1229 13.8141 19.9224 13.814 19.7133L13.8137 14.9824ZM17.8762 14.9827C17.8762 14.7736 17.7905 14.5731 17.6382 14.4252C17.4858 14.2773 17.2791 14.1942 17.0636 14.1942C16.8481 14.1942 16.6415 14.2772 16.4891 14.4251C16.3367 14.5729 16.2512 14.7735 16.2512 14.9826L16.2515 19.7135C16.2516 19.9226 16.3372 20.1231 16.4896 20.271C16.642 20.4189 16.8486 20.502 17.0641 20.502C17.2796 20.502 17.4863 20.419 17.6386 20.2711C17.791 20.1233 17.8766 19.9227 17.8765 19.7136L17.8762 14.9827ZM21.9387 14.9831C21.9387 14.774 21.853 14.5734 21.7007 14.4255C21.5483 14.2776 21.3416 14.1945 21.1261 14.1945C20.9106 14.1945 20.704 14.2776 20.5516 14.4254C20.3992 14.5733 20.3137 14.7738 20.3137 14.9829L20.314 19.7138C20.3141 19.9229 20.3997 20.1235 20.5521 20.2714C20.7045 20.4192 20.9111 20.5023 21.1266 20.5023C21.3421 20.5024 21.5488 20.4193 21.7011 20.2715C21.8535 20.1236 21.9391 19.9231 21.939 19.7139L21.9387 14.9831Z" fill="white"/>
</svg>
