<svg width="53" height="53" viewBox="0 0 53 53" fill="none" xmlns="http://www.w3.org/2000/svg">
<path d="M26.4167 17.6284C21.5684 17.6338 17.6162 21.5949 17.6217 26.4432C17.6271 31.2916 21.5882 35.2437 26.4365 35.2383C31.2849 35.2329 35.237 31.2718 35.2316 26.4235C35.2261 21.5751 31.2651 17.6229 26.4167 17.6284ZM52.8349 26.4037C52.8308 22.7575 52.8598 19.1444 52.6509 15.505C52.4414 11.2778 51.4728 7.52704 48.378 4.43919C45.2766 1.34475 41.5303 0.391175 37.3026 0.191154C33.6563 -0.0095191 30.0431 0.027564 26.4036 0.0316498C22.7574 0.0357431 19.1442 0.00677226 15.5049 0.215625C11.2777 0.425137 7.52693 1.39373 4.43909 4.48852C1.34464 7.58992 0.39107 11.3362 0.191049 15.5639C-0.00962419 19.2103 0.0274589 22.8234 0.0315448 26.463C0.0356306 30.1025 0.00666717 33.7223 0.21552 37.3616C0.425032 41.5889 1.39363 45.3396 4.48841 48.4275C7.58981 51.5219 11.3361 52.4755 15.5638 52.6755C19.2102 52.8762 22.8233 52.8391 26.4629 52.835C30.109 52.8309 33.7222 52.8599 37.3615 52.651C41.5888 52.4415 45.3395 51.4729 48.4274 48.3781C51.5218 45.2767 52.4754 41.5304 52.6754 37.3028C52.8827 33.663 52.839 30.0499 52.8349 26.4037ZM26.4418 39.981C18.9447 39.9894 12.8874 33.9457 12.879 26.4485C12.8706 18.9514 18.9143 12.8941 26.4114 12.8857C33.9085 12.8773 39.9658 18.921 39.9742 26.4181C39.9827 33.9152 33.9389 39.9725 26.4418 39.981ZM40.5168 15.479C38.7664 15.481 37.3513 14.069 37.3493 12.3186C37.3473 10.5682 38.7593 9.15302 40.5097 9.15106C42.2601 9.14909 43.6753 10.5611 43.6772 12.3115C43.6782 12.7271 43.5972 13.1389 43.4388 13.5232C43.2804 13.9075 43.0478 14.2567 42.7542 14.551C42.4606 14.8452 42.1119 15.0786 41.728 15.2379C41.344 15.3971 40.9325 15.4791 40.5168 15.479Z" fill="white"/>
</svg>
