<svg width="118" height="27" viewBox="0 0 118 27" fill="none" xmlns="http://www.w3.org/2000/svg">
<path d="M10.7718 26.252C7.72381 26.252 5.20381 25.544 3.21181 24.128C1.24381 22.688 0.175812 20.588 0.0078125 17.828L8.50381 17.828C8.62381 19.292 9.27181 20.024 10.4478 20.024C10.8798 20.024 11.2398 19.928 11.5278 19.736C11.8398 19.52 11.9958 19.196 11.9958 18.764C11.9958 18.164 11.6718 17.684 11.0238 17.324C10.3758 16.94 9.36781 16.508 7.99981 16.028C6.36781 15.452 5.01181 14.888 3.93181 14.336C2.87581 13.784 1.96381 12.98 1.19581 11.924C0.427813 10.868 0.0558125 9.51196 0.0798125 7.85596C0.0798125 6.19996 0.499813 4.79596 1.33981 3.64395C2.20381 2.46796 3.36781 1.57996 4.83181 0.979955C6.31981 0.379955 7.98781 0.0799561 9.83581 0.0799561C12.9558 0.0799561 15.4278 0.799956 17.2518 2.23996C19.0998 3.67996 20.0718 5.70796 20.1678 8.32396L11.5638 8.32396C11.5398 7.60396 11.3598 7.08796 11.0238 6.77596C10.6878 6.46396 10.2798 6.30796 9.79981 6.30796C9.46381 6.30796 9.18781 6.42796 8.97181 6.66796C8.75581 6.88396 8.64781 7.19596 8.64781 7.60396C8.64781 8.17996 8.95981 8.65996 9.58381 9.04396C10.2318 9.40396 11.2518 9.84796 12.6438 10.376C14.2518 10.976 15.5718 11.552 16.6038 12.104C17.6598 12.656 18.5718 13.424 19.3398 14.408C20.1078 15.392 20.4918 16.628 20.4918 18.116C20.4918 19.676 20.1078 21.08 19.3398 22.328C18.5718 23.552 17.4558 24.512 15.9918 25.208C14.5278 25.904 12.7878 26.252 10.7718 26.252Z" fill="white"/>
<path d="M38.7078 26L31.2918 14.948L31.2918 26L23.2998 26L23.2998 0.511957L31.2918 0.511957L31.2918 11.24L38.5998 0.511957L47.6358 0.511957L38.8518 12.716L48.2118 26L38.7078 26Z" fill="white"/>
<path d="M66.8196 22.148L58.3236 22.148L57.0636 26L48.6756 26L57.9996 0.511957L67.2156 0.511957L76.5036 26L68.0796 26L66.8196 22.148ZM64.8756 16.136L62.5716 9.04396L60.2676 16.136L64.8756 16.136Z" fill="white"/>
<path d="M98.3353 0.511957L98.3353 6.84796L91.5673 6.84796L91.5673 26L83.5753 26L83.5753 6.84796L76.8793 6.84796L76.8793 0.511957L98.3353 0.511957Z" fill="white"/>
<path d="M108.495 6.88396L108.495 10.016L116.415 10.016L116.415 16.028L108.495 16.028L108.495 19.628L117.495 19.628L117.495 26L100.503 26L100.503 0.511957L117.495 0.511957L117.495 6.88396L108.495 6.88396Z" fill="white"/>
</svg>
